Optional English and Greek Subtitles

Use DivX7 player to turn on the subtitles on PC.
Use TV control for your television.

Movie Trailer, Sample, Snapsots, English and Greek Info.txt Included

---------------------------------------------------------------------

Admiral (2008) 
http://www.imdb.com/title/tt1101026/

Plot: Admiral Kolchak is a true war hero and beloved husband and father. One day he meets Anna, the love of his life and the wife of his best friend. The revolution in his heart faces the revolution in his own country... His destiny is to became the Supreme Rules of Russia.  

Konstantin Khabenskiy, Elizaveta Boyarskaya, Sergey Bezrukov, Anna Kovalchuk

----------------------------------------------------------------------

General
Complete name                    : C:TORRENTDivXAdmiral (2008) - [DivX][SUBs.Eng+Gr]Omifast GreekAdmiral - MainMovie.divx
Format                           : DivX
Format/Info                      : Hack of AVI
File size                        : 654 MiB
Duration                         : 1h 58mn
Overall bit rate                 : 771 Kbps

Video
ID                               : 0
Format                           : MPEG-4 Visual
Format settings, BVOP            : Yes
Format settings, QPel            : No
Format settings, GMC             : No warppoints
Format settings, Matrix          : Default (H.263)
Muxing mode                      : Packed bitstream
Codec ID                         : DX50
Codec ID/Hint                    : DivX 5
Duration                         : 1h 58mn
Bit rate                         : 627 Kbps
Width                            : 720 pixels
Height                           : 576 pixels
Display aspect ratio             : 16:9
Frame rate                       : 25.000 fps
Standard                         : PAL
Resolution                       : 24 bits
Colorimetry                      : 4:2:0
Scan type                        : Progressive
Bits/(Pixel*Frame)               : 0.060
Stream size                      : 532 MiB (81%)
Title                            : Video 
Writing library                  : DivX 2151

Audio
ID                               : 1
Format                           : MPEG Audio
Format version                   : Version 1
Format profile                   : Layer 3
Codec ID                         : 55
Codec ID/Hint                    : MP3
Duration                         : 1h 58mn
Bit rate mode                    : Constant
Bit rate                         : 128 Kbps
Channel(s)                       : 2 channels
Sampling rate                    : 48.0 KHz
Resolution                       : 16 bits
Stream size                      : 109 MiB (17%)
Alignment                        : Split accross interleaves
Interleave, duration             : 40 ms (1.00 video frame)
Interleave, preload duration     : 500 ms
Title                            : Audio 

Text #1
Format                           : DivX Subtitle
Codec ID                         : DXSB
Codec ID/Info                    : Subtitle in AVI from DivX networks
Width                            : 640 pixels
Height                           : 480 pixels
Resolution                       : 4 bits
Stream size                      : 2.57 MiB (0%)
Title                            : Subtitle En

Text #2
Format                           : DivX Subtitle
Codec ID                         : DXSB
Codec ID/Info                    : Subtitle in AVI from DivX networks
Width                            : 640 pixels
Height                           : 480 pixels
Resolution                       : 4 bits
Stream size                      : 2.94 MiB (0%)
Title                            : Subtitle Gr

--------------------------------------------------------------------------
   
http://thepiratebay.org/user/OmifastGR

!	